<svg version="1.1" id="Layer_1" xmlns="http://www.w3.org/2000/svg" xmlns:xlink="http://www.w3.org/1999/xlink" x="0px" y="0px"
	 width="100%" viewBox="0 0 225 225" enable-background="new 0 0 225 225" xml:space="preserve">
<path fill="#000000" opacity="1.000000" stroke="none" 
	d="
M132.000000,226.000000 
	C88.000000,226.000000 44.500004,226.000000 1.000006,226.000000 
	C1.000004,151.000000 1.000004,76.000015 1.000002,1.000016 
	C75.999992,1.000011 150.999985,1.000011 225.999969,1.000005 
	C225.999985,75.999985 225.999985,150.999969 226.000000,225.999969 
	C194.833328,226.000000 163.666672,226.000000 132.000000,226.000000 
M88.963089,153.997803 
	C88.963089,153.997803 88.959969,153.925186 88.362076,154.121384 
	C87.926903,155.084412 87.491737,156.047424 87.013611,156.986359 
	C87.013611,156.986359 87.010391,157.035507 86.362511,157.237457 
	C84.437386,160.068665 80.637276,161.773880 80.581940,166.171600 
	C80.384949,166.446793 80.187950,166.721970 79.372917,167.280106 
	C78.234840,169.139542 77.096771,170.998978 75.264191,173.047699 
	C75.101608,173.081696 74.922905,173.085297 74.781898,173.160019 
	C74.681961,173.212967 74.632950,173.362045 74.561211,173.468216 
	C75.611107,173.973160 76.660217,174.916260 77.711014,174.918152 
	C97.472115,174.953720 117.233406,174.877823 137.921249,174.980621 
	C149.797424,174.990051 161.673843,175.035629 173.549500,174.962799 
	C175.022446,174.953781 176.491531,174.315399 178.597137,173.701538 
	C180.851440,170.029785 183.105759,166.358032 185.979004,162.347275 
	C187.652573,159.187561 189.326126,156.027847 191.652924,152.823761 
	C192.460175,151.564194 193.267441,150.304642 194.676712,148.706573 
	C196.597519,145.747314 198.518341,142.788040 200.849426,139.196701 
	C197.462723,139.196701 195.208801,139.196701 192.178223,139.070236 
	C191.130676,139.025497 190.083115,138.980759 188.548950,138.242599 
	C184.687393,138.473907 180.825821,138.705215 176.067215,138.994446 
	C173.367722,139.057175 170.668228,139.119904 167.211716,139.051849 
	C159.810928,138.753296 152.410141,138.454758 144.408981,138.169754 
	C144.012497,138.172775 143.615448,138.184280 143.220810,138.158752 
	C143.195831,138.157150 143.121765,137.829788 143.184296,137.717072 
	C145.157196,134.160751 147.144196,130.612244 149.681915,126.721611 
	C150.123764,125.541573 150.565613,124.361526 151.654709,123.259933 
	C152.390778,123.018791 153.463364,123.006241 153.807861,122.499107 
	C155.919800,119.390175 157.866898,116.169258 160.173691,112.362312 
	C163.735031,107.230553 167.296371,102.098793 171.180435,96.359436 
	C175.075714,91.022736 178.970993,85.686035 183.076462,79.752098 
	C184.087753,77.489601 185.099060,75.227097 186.113770,72.419006 
	C186.424377,71.984352 186.734970,71.549690 187.700729,70.803215 
	C188.499390,69.859177 189.364777,68.962936 190.082458,67.960907 
	C191.469879,66.023735 192.774002,64.026901 194.725967,61.759281 
	C195.761246,59.837624 196.796509,57.915970 198.122162,55.365158 
	C201.439240,51.258896 204.756317,47.152634 208.674362,42.771347 
	C208.483627,41.850727 208.292892,40.930103 207.720657,39.202362 
	C185.781738,39.136173 163.842834,39.061317 141.903885,39.046284 
	C141.255859,39.045837 140.607391,39.674850 139.229904,40.006729 
	C135.481323,45.312721 131.727158,50.614803 128.003296,55.938095 
	C127.843910,56.165920 127.964775,56.589787 127.233742,57.015381 
	C123.793755,62.314884 120.353767,67.614388 116.300819,73.229492 
	C115.667999,73.931122 115.035172,74.632744 113.798409,76.003960 
	C119.872360,76.003960 125.257973,75.891800 130.636108,76.043968 
	C134.137695,76.143036 137.628433,76.626633 141.022278,77.662262 
	C139.987747,79.431824 138.953201,81.201378 137.310715,83.292320 
	C135.195282,86.506126 133.079865,89.719925 130.421295,93.274544 
	C129.609009,94.494148 128.796738,95.713753 127.332207,97.208939 
	C124.952927,100.826675 122.573647,104.444412 120.041977,108.442780 
	C120.041977,108.442780 119.952019,108.842796 119.226799,108.892509 
	C118.489662,109.927544 117.752518,110.962578 116.337318,112.040024 
	C115.604347,113.353958 114.871376,114.667892 113.843559,116.579811 
	C111.571701,120.054176 109.299843,123.528534 106.776703,127.638893 
	C102.364044,133.443100 97.929192,139.230942 93.598457,145.095657 
	C93.359833,145.418823 93.986229,146.380753 94.081520,147.020691 
	C94.081520,147.020691 94.045654,147.146500 93.421272,147.322510 
	C93.081947,148.826065 88.584473,147.761230 91.063583,151.002640 
	C91.063583,151.002640 91.039253,151.070389 90.416359,151.183578 
	C89.910271,152.110809 89.404182,153.038040 88.963089,153.997803 
M71.688324,171.680557 
	C73.839844,168.148346 75.991371,164.616119 78.710152,160.717453 
	C88.786041,146.457657 98.861931,132.197845 109.006607,117.011002 
	C108.980858,103.369911 108.955101,89.728828 109.235268,75.465515 
	C114.224640,68.380150 119.294121,61.349396 124.174660,54.189842 
	C127.327812,49.564320 130.204224,44.750153 132.695938,39.286655 
	C132.043198,39.193554 131.390488,39.019379 130.737701,39.019009 
	C101.859337,39.002674 72.980949,38.992886 44.102654,39.035664 
	C43.101654,39.037144 42.101452,39.581860 40.820026,40.523853 
	C35.868332,47.557903 30.770948,54.495579 26.026865,61.666969 
	C23.681131,65.212898 21.986609,69.189613 19.230135,73.025536 
	C18.454466,73.749367 17.678795,74.473198 15.821456,76.206413 
	C34.662170,76.206413 51.839909,76.206413 68.967415,76.645645 
	C68.967415,76.645645 69.081078,77.072891 69.041031,77.998367 
	C69.041031,109.946449 69.041031,141.894531 69.041031,173.842606 
	C69.459999,173.888626 69.878975,173.934647 70.297943,173.980652 
	C70.565056,173.326096 70.832169,172.671524 71.688324,171.680557 
z"/>
<path fill="#474747" opacity="1.000000" stroke="none" 
	d="
M108.937820,117.938049 
	C98.861931,132.197845 88.786041,146.457657 78.131516,160.739594 
	C75.060318,160.843262 72.567757,160.924789 70.052444,160.537750 
	C70.018677,134.321594 70.027069,108.573929 69.957245,82.826485 
	C69.952042,80.907837 69.386261,78.990723 69.081078,77.072891 
	C69.081078,77.072891 68.967415,76.645645 68.769867,76.054626 
	C54.658199,75.312843 40.742001,75.250717 26.832048,74.923187 
	C24.539797,74.869225 22.274952,73.651382 19.997440,72.971420 
	C21.986609,69.189613 23.681131,65.212898 26.026865,61.666969 
	C30.770948,54.495579 35.868332,47.557903 41.420952,40.241112 
	C72.416130,39.979088 102.810379,39.999802 133.204636,40.020515 
	C130.204224,44.750153 127.327812,49.564320 124.174660,54.189842 
	C119.294121,61.349396 114.224640,68.380150 108.773956,75.965523 
	C108.157104,77.659538 108.001564,78.853539 107.741547,80.146164 
	C107.498619,80.533707 107.574013,80.771584 107.930222,81.425522 
	C107.794312,92.814468 107.591431,103.736336 107.215256,114.846375 
	C107.159576,115.467163 107.277199,115.899780 107.335091,116.441757 
	C107.275360,116.551117 107.050362,116.443954 107.142029,116.733582 
	C107.466446,117.350525 107.699203,117.677841 108.185959,118.026283 
	C108.605904,118.010956 108.771858,117.974503 108.937820,117.938049 
z"/>
<path fill="#5D2872" opacity="1.000000" stroke="none" 
	d="
M79.990952,166.997162 
	C80.187950,166.721970 80.384949,166.446793 81.129242,166.224838 
	C82.720970,165.847900 84.396225,165.674850 84.695389,164.940918 
	C85.726402,162.411499 86.276878,159.686188 87.010391,157.035507 
	C87.010391,157.035507 87.013611,156.986359 87.353210,156.896332 
	C88.115196,155.845947 88.537582,154.885559 88.959961,153.925186 
	C88.959969,153.925186 88.963089,153.997803 89.262009,153.911377 
	C90.053703,152.906754 90.546478,151.988571 91.039253,151.070389 
	C91.039253,151.070389 91.063583,151.002640 91.418289,150.939545 
	C92.530556,149.633118 93.288109,148.389816 94.045654,147.146500 
	C94.045654,147.146500 94.081520,147.020691 94.443222,146.958557 
	C95.868286,146.257355 96.931633,145.618271 98.050461,145.334320 
	C102.490662,150.971237 106.556061,156.571594 111.384369,161.410782 
	C114.116760,164.149353 117.628036,165.761154 112.123558,170.379120 
	C115.033424,170.666626 116.782089,170.647858 118.424400,171.056488 
	C120.012085,171.451523 121.490211,172.286850 122.546616,172.951035 
	C108.375702,172.953445 94.674637,172.933594 80.814392,172.572662 
	C80.433792,170.486771 80.212372,168.741974 79.990952,166.997162 
z"/>
<path fill="#BE80D5" opacity="1.000000" stroke="none" 
	d="
M194.112640,62.054794 
	C192.774002,64.026901 191.469879,66.023735 190.082458,67.960907 
	C189.364777,68.962936 188.499390,69.859177 187.221222,70.632858 
	C185.215698,68.652321 183.920975,66.559128 182.119110,65.086472 
	C177.251740,61.108391 172.161896,57.402981 167.184586,53.557976 
	C166.817352,53.274281 166.411896,52.737282 166.416245,52.322159 
	C166.459976,48.153179 164.444656,46.544365 160.321411,46.677586 
	C159.424683,46.706562 158.465866,44.813759 157.535660,43.806076 
	C158.591797,43.210354 159.584946,42.393024 160.718796,42.070789 
	C162.423920,41.586197 164.227570,41.448212 166.435257,41.104473 
	C169.562347,41.001255 172.243500,40.956429 174.896500,41.262146 
	C173.137512,45.446030 177.529526,45.899181 178.357742,47.983467 
	C181.337402,55.482098 188.502487,57.805241 194.112640,62.054794 
z"/>
<path fill="#7C4793" opacity="1.000000" stroke="none" 
	d="
M185.360062,162.686279 
	C183.105759,166.358032 180.851440,170.029785 177.831726,173.858582 
	C174.373779,173.957947 171.681259,173.900269 168.988098,173.480072 
	C168.463745,171.973953 168.184921,170.607727 167.378723,169.720932 
	C158.638718,160.106796 149.815918,150.567947 141.308304,141.039246 
	C142.731598,141.044754 143.862289,141.019547 145.422409,140.997345 
	C147.568878,141.008560 149.285919,141.016769 151.003052,141.417084 
	C151.792892,143.094543 152.361618,144.619965 153.429520,145.603180 
	C154.701660,146.774429 156.773834,147.167633 157.849014,148.445251 
	C161.457901,152.733627 164.528305,157.492004 168.290115,161.629257 
	C171.065338,164.681473 174.836929,165.916321 179.347015,163.933685 
	C181.579437,163.481598 183.469742,163.083939 185.360062,162.686279 
z"/>
<path fill="#B87BD0" opacity="1.000000" stroke="none" 
	d="
M165.989319,41.162865 
	C164.227570,41.448212 162.423920,41.586197 160.718796,42.070789 
	C159.584946,42.393024 158.591797,43.210354 157.535660,43.806076 
	C158.465866,44.813759 159.424683,46.706562 160.321411,46.677586 
	C164.444656,46.544365 166.459976,48.153179 166.416245,52.322159 
	C166.411896,52.737282 166.817352,53.274281 167.184586,53.557976 
	C172.161896,57.402981 177.251740,61.108391 182.119110,65.086472 
	C183.920975,66.559128 185.215698,68.652321 186.893646,70.788773 
	C186.734970,71.549690 186.424377,71.984352 185.768188,72.708946 
	C184.963593,73.012398 184.504547,73.025909 183.768158,73.175964 
	C182.662247,74.205490 181.833679,75.098488 180.936737,75.689926 
	C180.248032,74.933731 179.627731,74.479118 178.946487,73.682678 
	C178.292404,72.585091 177.755249,71.776237 177.097275,71.081863 
	C171.471893,65.145248 165.085861,59.749477 160.428986,53.134758 
	C157.003784,48.269554 153.623871,46.084019 148.000000,47.000076 
	C148.000000,47.000000 148.000000,47.000153 147.951202,46.662537 
	C147.936203,44.577820 147.970016,42.830715 148.426880,41.068619 
	C150.263596,41.033127 151.677231,41.012627 153.337280,41.028336 
	C153.583694,41.064545 154.067001,41.184937 154.226898,41.339134 
	C154.902298,41.388908 155.417801,41.284485 156.387863,41.119183 
	C159.891373,41.093159 162.940353,41.128014 165.989319,41.162865 
z"/>
<path fill="#854C9C" opacity="1.000000" stroke="none" 
	d="
M119.952026,108.842789 
	C119.952019,108.842796 120.041977,108.442780 120.458878,108.219467 
	C122.910828,106.657234 124.945885,105.318321 127.271500,104.152863 
	C132.740723,109.130157 137.979568,113.871391 143.070724,118.766273 
	C145.357086,120.964500 148.603271,122.877953 146.761765,127.208054 
	C144.686646,128.945755 142.846527,130.479385 140.908173,131.679123 
	C135.448853,129.039551 132.674759,124.317230 130.347931,119.456902 
	C128.756805,116.133301 128.488785,112.036423 123.196289,112.566444 
	C122.577385,112.628426 121.780495,110.913223 120.852081,109.853317 
	C120.409370,109.404076 120.180695,109.123436 119.952026,108.842789 
z"/>
<path fill="#8D53A2" opacity="1.000000" stroke="none" 
	d="
M146.996765,127.003983 
	C148.603271,122.877953 145.357086,120.964500 143.070724,118.766273 
	C137.979568,113.871391 132.740723,109.130157 127.339371,103.767334 
	C127.405930,101.116684 127.695190,99.025017 127.984459,96.933350 
	C128.796738,95.713753 129.609009,94.494148 130.890869,93.326271 
	C131.908401,93.584602 132.456329,93.791199 133.017181,94.367172 
	C134.088623,96.724556 134.894897,98.909859 136.261383,100.657005 
	C138.653931,103.716057 141.237778,106.663612 144.025391,109.364899 
	C146.841721,112.094032 150.002777,114.467422 152.949783,117.353760 
	C152.260315,119.534409 151.633881,121.357948 151.007462,123.181488 
	C150.565613,124.361526 150.123764,125.541573 149.050186,126.879761 
	C147.944565,127.026604 147.470657,127.015297 146.996765,127.003983 
z"/>
<path fill="#985DB0" opacity="1.000000" stroke="none" 
	d="
M133.004272,93.997803 
	C132.456329,93.791199 131.908401,93.584602 131.162445,93.155869 
	C133.079865,89.719925 135.195282,86.506126 138.001160,83.137070 
	C139.464661,82.987938 140.237732,82.994049 141.238586,83.220810 
	C142.382294,84.165619 143.776489,84.704597 144.139786,85.642784 
	C147.561539,94.479118 154.898972,98.692406 162.973465,102.384018 
	C161.005646,105.823097 161.305176,110.746307 155.866974,110.690674 
	C153.151917,107.258621 150.626984,104.112587 148.011475,101.043755 
	C144.086624,96.438660 140.251892,91.559868 133.004272,93.997803 
z"/>
<path fill="#88509F" opacity="1.000000" stroke="none" 
	d="
M185.669525,162.516785 
	C183.469742,163.083939 181.579437,163.481598 179.406708,163.562256 
	C180.594437,159.456345 179.461746,157.718582 175.595459,155.650589 
	C169.739441,152.518295 166.243454,146.793335 165.324188,140.011078 
	C166.418106,139.728607 167.193420,139.455612 167.968735,139.182632 
	C170.668228,139.119904 173.367722,139.057175 176.526367,139.238678 
	C176.993164,139.665100 177.000793,139.847321 177.005829,140.400269 
	C177.004807,141.512299 177.006378,142.253586 177.065521,143.345322 
	C178.357208,145.848434 179.689514,147.951721 180.802887,150.165131 
	C182.560928,153.660202 184.831680,154.204865 187.793198,151.456024 
	C190.210068,149.212738 190.805450,150.416702 190.999695,152.868134 
	C189.326126,156.027847 187.652573,159.187561 185.669525,162.516785 
z"/>
<path fill="#C688DD" opacity="1.000000" stroke="none" 
	d="
M194.419312,61.907036 
	C188.502487,57.805241 181.337402,55.482098 178.357742,47.983467 
	C177.529526,45.899181 173.137512,45.446030 174.911194,41.274490 
	C174.954041,40.936283 174.937759,40.954067 175.197876,40.970940 
	C175.631393,40.995613 175.804794,41.003414 176.437775,41.013779 
	C180.270889,41.033226 183.644409,41.050110 186.961304,41.405293 
	C185.674347,44.398136 187.340866,45.283802 189.266266,46.731453 
	C191.850998,48.674850 193.790146,51.477913 196.001114,53.916767 
	C196.620987,54.600540 197.222076,55.301334 197.831787,55.994316 
	C196.796509,57.915970 195.761246,59.837624 194.419312,61.907036 
z"/>
<path fill="#CD8FE2" opacity="1.000000" stroke="none" 
	d="
M197.976974,55.679741 
	C197.222076,55.301334 196.620987,54.600540 196.001114,53.916767 
	C193.790146,51.477913 191.850998,48.674850 189.266266,46.731453 
	C187.340866,45.283802 185.674347,44.398136 187.427429,41.389580 
	C190.736115,41.028084 193.550323,40.766827 196.301163,41.073662 
	C200.249466,41.514061 204.151566,42.368618 208.073395,43.046371 
	C204.756317,47.152634 201.439240,51.258896 197.976974,55.679741 
z"/>
<path fill="#9056A5" opacity="1.000000" stroke="none" 
	d="
M191.326309,152.845947 
	C190.805450,150.416702 190.210068,149.212738 187.793198,151.456024 
	C184.831680,154.204865 182.560928,153.660202 180.802887,150.165131 
	C179.689514,147.951721 178.357208,145.848434 177.531006,143.346039 
	C182.966782,142.655502 187.994644,142.314651 193.248383,142.173309 
	C193.674408,144.596893 193.874557,146.820999 194.074707,149.045090 
	C193.267441,150.304642 192.460175,151.564194 191.326309,152.845947 
z"/>
<path fill="#6A6A6A" opacity="1.000000" stroke="none" 
	d="
M69.061050,77.535629 
	C69.386261,78.990723 69.952042,80.907837 69.957245,82.826485 
	C70.027069,108.573929 70.018677,134.321594 70.025375,160.989624 
	C70.380455,165.279022 70.739868,168.647980 71.099281,172.016953 
	C70.832169,172.671524 70.565056,173.326096 70.297943,173.980652 
	C69.878975,173.934647 69.459999,173.888626 69.041031,173.842606 
	C69.041031,141.894531 69.041031,109.946449 69.061050,77.535629 
z"/>
<path fill="#D9D9D9" opacity="1.000000" stroke="none" 
	d="
M132.950287,39.653587 
	C102.810379,39.999802 72.416130,39.979088 41.561378,39.915878 
	C42.101452,39.581860 43.101654,39.037144 44.102654,39.035664 
	C72.980949,38.992886 101.859337,39.002674 130.737701,39.019009 
	C131.390488,39.019379 132.043198,39.193554 132.950287,39.653587 
z"/>
<path fill="#906A9F" opacity="1.000000" stroke="none" 
	d="
M116.913773,72.913895 
	C120.353767,67.614388 123.793755,62.314884 127.733902,57.177258 
	C128.484039,57.558144 128.734024,57.777157 128.949142,58.313072 
	C128.597061,59.415558 128.279831,60.201138 127.664841,61.134125 
	C126.243584,62.853519 125.120087,64.425514 123.702591,66.165497 
	C122.345497,68.122139 121.282394,69.910797 119.445152,73.001945 
	C124.734566,73.001945 128.367310,73.001945 132.399353,73.000801 
	C133.863083,72.987175 134.927505,72.974693 136.256958,73.067703 
	C137.998703,73.740662 139.475403,74.308121 140.489258,74.916130 
	C134.928864,74.976021 129.817291,75.226860 124.739510,74.919540 
	C122.100136,74.759796 119.520439,73.614174 116.913773,72.913895 
z"/>
<path fill="#FEDCFF" opacity="1.000000" stroke="none" 
	d="
M154.067001,41.184937 
	C154.067001,41.184937 153.583694,41.064545 153.061493,40.700539 
	C148.345901,40.227818 144.152512,40.119099 139.959137,40.010376 
	C140.607391,39.674850 141.255859,39.045837 141.903885,39.046284 
	C163.842834,39.061317 185.781738,39.136173 207.435608,39.613274 
	C196.762161,40.061489 186.373779,40.098793 175.753265,40.182823 
	C175.231445,40.394341 175.036972,40.635845 174.937759,40.954067 
	C174.937759,40.954067 174.954041,40.936283 174.939346,40.923943 
	C172.243500,40.956429 169.562347,41.001255 166.435257,41.104473 
	C162.940353,41.128014 159.891373,41.093159 156.077789,41.076981 
	C154.897797,41.125416 154.482391,41.155174 154.067001,41.184937 
z"/>
<path fill="#9F79AF" opacity="1.000000" stroke="none" 
	d="
M139.594513,40.008553 
	C144.152512,40.119099 148.345901,40.227818 152.815079,40.664330 
	C151.677231,41.012627 150.263596,41.033127 148.026260,41.045929 
	C145.466934,41.364117 143.731308,41.690002 141.649780,42.075699 
	C138.859009,46.087635 136.414139,50.039757 133.696564,54.123253 
	C132.613159,54.832787 131.802444,55.410950 130.736115,56.126564 
	C129.981674,56.841404 129.482834,57.418785 128.983994,57.996166 
	C128.734024,57.777157 128.484039,57.558144 128.094574,57.130730 
	C127.964775,56.589787 127.843910,56.165920 128.003296,55.938095 
	C131.727158,50.614803 135.481323,45.312721 139.594513,40.008553 
z"/>
<path fill="#775088" opacity="1.000000" stroke="none" 
	d="
M146.761765,127.208054 
	C147.470657,127.015297 147.944565,127.026604 148.773758,127.050240 
	C147.144196,130.612244 145.157196,134.160751 143.184296,137.717072 
	C143.121765,137.829788 143.195831,138.157150 143.220810,138.158752 
	C143.615448,138.184280 144.012497,138.172775 144.705109,138.517792 
	C144.998505,139.575333 144.995743,140.284851 144.992981,140.994354 
	C143.862289,141.019547 142.731598,141.044754 140.967682,140.933548 
	C139.557831,138.534180 138.781204,136.271210 138.318298,133.962708 
	C139.423477,133.282455 140.214951,132.647736 141.006409,132.013016 
	C142.846527,130.479385 144.686646,128.945755 146.761765,127.208054 
z"/>
<path fill="#5D3E6C" opacity="1.000000" stroke="none" 
	d="
M97.994980,144.979187 
	C96.931633,145.618271 95.868286,146.257355 94.507462,146.970901 
	C93.986229,146.380753 93.359833,145.418823 93.598457,145.095657 
	C97.929192,139.230942 102.364044,133.443100 107.128624,127.270920 
	C108.021202,126.938416 108.561852,126.973892 109.075699,127.271080 
	C109.036301,127.707626 109.023697,127.882462 108.818535,128.161682 
	C108.387108,128.444672 108.205864,128.669693 108.009644,129.291260 
	C105.961411,133.425034 103.985771,137.208710 101.733490,141.152924 
	C100.302895,142.535370 99.148941,143.757278 97.994980,144.979187 
z"/>
<path fill="#D2BAD8" opacity="1.000000" stroke="none" 
	d="
M136.994659,174.825211 
	C117.233406,174.877823 97.472115,174.953720 77.711014,174.918152 
	C76.660217,174.916260 75.611107,173.973160 74.561211,173.468216 
	C74.632950,173.362045 74.681961,173.212967 74.781898,173.160019 
	C74.922905,173.085297 75.101608,173.081696 75.950256,173.096191 
	C77.775917,173.378540 78.915520,173.612396 80.516724,173.907028 
	C99.667549,174.021179 118.356758,174.074570 137.031311,174.302124 
	C137.016632,174.476303 136.994659,174.825211 136.994659,174.825211 
z"/>
<path fill="#454842" opacity="1.000000" stroke="none" 
	d="
M71.393799,171.848755 
	C70.739868,168.647980 70.380455,165.279022 70.048111,161.458191 
	C72.567757,160.924789 75.060318,160.843262 77.847885,160.922821 
	C75.991371,164.616119 73.839844,168.148346 71.393799,171.848755 
z"/>
<path fill="#9F79AF" opacity="1.000000" stroke="none" 
	d="
M182.866257,80.349335 
	C178.970993,85.686035 175.075714,91.022736 170.837921,96.538635 
	C170.272934,96.518806 170.103653,96.281784 169.990936,95.578133 
	C169.997818,93.435966 170.001328,91.722458 170.002838,90.004807 
	C170.000839,90.000679 170.008728,90.003944 170.311981,89.937073 
	C171.077866,89.249191 171.540497,88.628181 172.204315,87.875565 
	C172.657288,87.536934 172.855545,87.287384 173.337875,86.936661 
	C175.458557,84.592407 177.241653,82.306793 179.269257,80.017303 
	C179.513763,80.013420 180.003052,79.995766 180.333008,79.996338 
	C181.102692,79.991890 181.542419,79.986877 182.198120,80.085892 
	C182.414093,80.189919 182.866257,80.349335 182.866257,80.349335 
z"/>
<path fill="#946AA3" opacity="1.000000" stroke="none" 
	d="
M169.987549,96.006783 
	C170.103653,96.281784 170.272934,96.518806 170.676559,96.842438 
	C167.296371,102.098793 163.735031,107.230553 159.638000,112.679726 
	C158.079987,112.993202 157.057648,112.989258 156.027496,112.656372 
	C156.018646,111.888695 156.017593,111.449959 156.016541,111.011230 
	C161.305176,110.746307 161.005646,105.823097 163.297256,102.289307 
	C164.466064,100.234230 165.249924,98.628815 166.370697,96.969391 
	C167.800919,96.612526 168.894241,96.309654 169.987549,96.006783 
z"/>
<path fill="#929292" opacity="1.000000" stroke="none" 
	d="
M19.613789,72.998474 
	C22.274952,73.651382 24.539797,74.869225 26.832048,74.923187 
	C40.742001,75.250717 54.658199,75.312843 68.794983,75.835014 
	C51.839909,76.206413 34.662170,76.206413 15.821456,76.206413 
	C17.678795,74.473198 18.454466,73.749367 19.613789,72.998474 
z"/>
<path fill="#725181" opacity="1.000000" stroke="none" 
	d="
M109.102509,127.009369 
	C108.561852,126.973892 108.021202,126.938416 107.254257,126.952919 
	C109.299843,123.528534 111.571701,120.054176 114.310165,116.203949 
	C115.522980,114.551262 116.269180,113.274445 117.015381,111.997620 
	C117.752518,110.962578 118.489662,109.927544 119.589417,108.867645 
	C120.180695,109.123436 120.409370,109.404076 120.812645,110.209412 
	C119.659813,113.489227 118.332382,116.244339 116.711426,119.160477 
	C114.951271,121.210075 113.484634,123.098640 112.009354,124.993607 
	C112.000710,124.999992 111.988052,125.017105 111.750366,125.203621 
	C110.709290,125.929878 109.905899,126.469627 109.102509,127.009369 
z"/>
<path fill="#9F69B2" opacity="1.000000" stroke="none" 
	d="
M140.952118,74.875587 
	C139.475403,74.308121 137.998703,73.740662 136.301102,72.784737 
	C136.388367,71.928574 136.696518,71.460876 137.396240,70.997269 
	C144.677567,71.092644 145.272339,75.732246 144.718140,81.129456 
	C143.289673,81.843880 142.150238,82.422028 141.010803,83.000168 
	C140.237732,82.994049 139.464661,82.987938 138.305130,82.976379 
	C138.953201,81.201378 139.987747,79.431824 141.280914,77.138870 
	C141.343750,76.035522 141.147934,75.455551 140.952118,74.875587 
z"/>
<path fill="#8A5AAD" opacity="1.000000" stroke="none" 
	d="
M193.022522,141.973816 
	C187.994644,142.314651 182.966782,142.655502 177.473419,142.995605 
	C177.006378,142.253586 177.004807,141.512299 177.462189,140.391815 
	C181.625946,139.653763 185.330765,139.294891 189.035568,138.936035 
	C190.083115,138.980759 191.130676,139.025497 192.579376,139.480774 
	C192.994522,140.585480 193.008514,141.279633 193.022522,141.973816 
z"/>
<path fill="#7E5F8F" opacity="1.000000" stroke="none" 
	d="
M145.422409,140.997345 
	C144.995743,140.284851 144.998505,139.575333 145.005310,138.511017 
	C152.410141,138.454758 159.810928,138.753296 167.590225,139.117233 
	C167.193420,139.455612 166.418106,139.728607 164.887253,140.004974 
	C159.755463,140.347229 155.379211,140.686111 151.002960,141.024994 
	C149.285919,141.016769 147.568878,141.008560 145.422409,140.997345 
z"/>
<path fill="#A1A1A1" opacity="1.000000" stroke="none" 
	d="
M107.388557,114.658195 
	C107.591431,103.736336 107.794312,92.814468 107.957657,81.197212 
	C107.918129,80.501816 107.846024,80.047546 107.846024,80.047546 
	C108.001564,78.853539 108.157104,77.659538 108.620995,76.276634 
	C108.955101,89.728828 108.980858,103.369911 108.972214,117.474525 
	C108.771858,117.974503 108.605904,118.010956 108.167770,117.689751 
	C107.613846,117.036057 107.332100,116.740005 107.050362,116.443954 
	C107.050362,116.443954 107.275360,116.551117 107.460953,116.020630 
	C107.560555,115.212830 107.474556,114.935516 107.388557,114.658195 
z"/>
<path fill="#836497" opacity="1.000000" stroke="none" 
	d="
M193.248383,142.173309 
	C193.008514,141.279633 192.994522,140.585480 192.967682,139.544006 
	C195.208801,139.196701 197.462723,139.196701 200.849426,139.196701 
	C198.518341,142.788040 196.597519,145.747314 194.375702,148.875824 
	C193.874557,146.820999 193.674408,144.596893 193.248383,142.173309 
z"/>
<path fill="#836497" opacity="1.000000" stroke="none" 
	d="
M156.035309,112.985313 
	C157.057648,112.989258 158.079987,112.993202 159.485611,112.991386 
	C157.866898,116.169258 155.919800,119.390175 153.807861,122.499107 
	C153.463364,123.006241 152.390778,123.018791 151.331085,123.220711 
	C151.633881,121.357948 152.260315,119.534409 153.090607,117.046730 
	C154.208069,115.250168 155.121689,114.117737 156.035309,112.985313 
z"/>
<path fill="#CBB5D3" opacity="1.000000" stroke="none" 
	d="
M137.457947,174.902924 
	C136.994659,174.825211 137.016632,174.476303 136.963440,174.235748 
	C136.910248,173.995193 136.928650,173.806198 137.373199,173.866745 
	C140.205734,173.887711 142.593735,173.848114 145.421326,173.882721 
	C148.235626,173.918091 150.610352,173.879257 153.445648,173.900177 
	C157.931900,173.914978 161.957550,173.870026 166.356140,173.887268 
	C167.482300,173.913864 168.235519,173.878220 168.988739,173.842590 
	C171.681259,173.900269 174.373779,173.957947 177.514343,173.992126 
	C176.491531,174.315399 175.022446,174.953781 173.549500,174.962799 
	C161.673843,175.035629 149.797424,174.990051 137.457947,174.902924 
z"/>
<path fill="#B994C5" opacity="1.000000" stroke="none" 
	d="
M175.985382,40.136093 
	C186.373779,40.098793 196.762161,40.061489 207.626358,40.016838 
	C208.292892,40.930103 208.483627,41.850727 208.373871,42.908859 
	C204.151566,42.368618 200.249466,41.514061 196.301163,41.073662 
	C193.550323,40.766827 190.736115,41.028084 187.484070,41.051285 
	C183.644409,41.050110 180.270889,41.033226 176.441910,40.794937 
	C175.986450,40.573536 175.985382,40.136093 175.985382,40.136093 
z"/>
<path fill="#B9A0C1" opacity="1.000000" stroke="none" 
	d="
M140.489258,74.916130 
	C141.147934,75.455551 141.343750,76.035522 141.331787,76.776733 
	C137.628433,76.626633 134.137695,76.143036 130.636108,76.043968 
	C125.257973,75.891800 119.872360,76.003960 113.798409,76.003960 
	C115.035172,74.632744 115.667999,73.931122 116.607300,73.071693 
	C119.520439,73.614174 122.100136,74.759796 124.739510,74.919540 
	C129.817291,75.226860 134.928864,74.976021 140.489258,74.916130 
z"/>
<path fill="#7E5F8F" opacity="1.000000" stroke="none" 
	d="
M127.658325,97.071144 
	C127.695190,99.025017 127.405930,101.116684 127.048813,103.593887 
	C124.945885,105.318321 122.910828,106.657234 120.535072,108.029144 
	C122.573647,104.444412 124.952927,100.826675 127.658325,97.071144 
z"/>
<path fill="#5D3E6C" opacity="1.000000" stroke="none" 
	d="
M86.686455,157.136475 
	C86.276878,159.686188 85.726402,162.411499 84.695389,164.940918 
	C84.396225,165.674850 82.720970,165.847900 81.379761,166.153458 
	C80.637276,161.773880 84.437386,160.068665 86.686455,157.136475 
z"/>
<path fill="#836497" opacity="1.000000" stroke="none" 
	d="
M188.792267,138.589325 
	C185.330765,139.294891 181.625946,139.653763 177.464783,140.021072 
	C177.000793,139.847321 176.993164,139.665100 176.974884,139.209717 
	C180.825821,138.705215 184.687393,138.473907 188.792267,138.589325 
z"/>
<path fill="#5D3E6C" opacity="1.000000" stroke="none" 
	d="
M80.055115,173.846252 
	C78.915520,173.612396 77.775917,173.378540 76.297508,173.001556 
	C77.096771,170.998978 78.234840,169.139542 79.681931,167.138641 
	C80.212372,168.741974 80.433792,170.486771 80.629395,172.695847 
	C80.357857,173.338562 80.175041,173.567276 80.055115,173.846252 
z"/>
<path fill="#9F79AF" opacity="1.000000" stroke="none" 
	d="
M184.045517,73.039429 
	C184.504547,73.025909 184.963593,73.012398 185.766479,72.981743 
	C185.099060,75.227097 184.087753,77.489601 182.971359,80.050720 
	C182.866257,80.349335 182.414093,80.189919 182.217484,79.717659 
	C182.695755,77.176743 183.370636,75.108086 184.045517,73.039429 
z"/>
<path fill="#5D3E6C" opacity="1.000000" stroke="none" 
	d="
M93.733459,147.234497 
	C93.288109,148.389816 92.530556,149.633118 91.448227,150.959534 
	C88.584473,147.761230 93.081947,148.826065 93.733459,147.234497 
z"/>
<path fill="#7E5F8F" opacity="1.000000" stroke="none" 
	d="
M116.676346,112.018822 
	C116.269180,113.274445 115.522980,114.551262 114.457596,115.904953 
	C114.871376,114.667892 115.604347,113.353958 116.676346,112.018822 
z"/>
<path fill="#5D3E6C" opacity="1.000000" stroke="none" 
	d="
M88.661018,154.023285 
	C88.537582,154.885559 88.115196,155.845947 87.374695,156.908386 
	C87.491737,156.047424 87.926903,155.084412 88.661018,154.023285 
z"/>
<path fill="#5D3E6C" opacity="1.000000" stroke="none" 
	d="
M90.727806,151.126984 
	C90.546478,151.988571 90.053703,152.906754 89.229515,153.895111 
	C89.404182,153.038040 89.910271,152.110809 90.727806,151.126984 
z"/>
<path fill="#3D3D3D" opacity="1.000000" stroke="none" 
	d="
M107.741547,80.146164 
	C107.846024,80.047546 107.918129,80.501816 107.890686,80.730118 
	C107.574013,80.771584 107.498619,80.533707 107.741547,80.146164 
z"/>
<path fill="#3D3D3D" opacity="1.000000" stroke="none" 
	d="
M107.215256,114.846375 
	C107.474556,114.935516 107.560555,115.212830 107.520691,115.911270 
	C107.277199,115.899780 107.159576,115.467163 107.215256,114.846375 
z"/>
<path fill="#3D3D3D" opacity="1.000000" stroke="none" 
	d="
M107.142029,116.733582 
	C107.332100,116.740005 107.613846,117.036057 107.913773,117.668633 
	C107.699203,117.677841 107.466446,117.350525 107.142029,116.733582 
z"/>
<path fill="#632C7A" opacity="1.000000" stroke="none" 
	d="
M98.050461,145.334320 
	C99.148941,143.757278 100.302895,142.535370 102.002899,141.214478 
	C103.250847,142.298767 103.772087,143.649536 104.686478,144.635803 
	C108.315544,148.550140 112.065498,152.352493 115.774773,156.192383 
	C117.462051,157.939087 118.896347,160.722275 120.899849,161.225342 
	C127.332146,162.840393 128.675980,167.380295 128.588669,172.929138 
	C126.445831,172.947769 124.731148,172.938278 123.016457,172.928787 
	C121.490211,172.286850 120.012085,171.451523 118.424400,171.056488 
	C116.782089,170.647858 115.033424,170.666626 112.123558,170.379120 
	C117.628036,165.761154 114.116760,164.149353 111.384369,161.410782 
	C106.556061,156.571594 102.490662,150.971237 98.050461,145.334320 
z"/>
<path fill="#441E4E" opacity="1.000000" stroke="none" 
	d="
M122.546616,172.951035 
	C124.731148,172.938278 126.445831,172.947769 129.029205,172.956573 
	C132.254669,172.994644 134.611450,173.033417 136.956604,173.255600 
	C136.945007,173.439011 136.928650,173.806198 136.928650,173.806198 
	C136.928650,173.806198 136.910248,173.995193 136.978119,174.061569 
	C118.356758,174.074570 99.667549,174.021179 80.516724,173.907028 
	C80.175041,173.567276 80.357857,173.338562 80.788567,173.036926 
	C94.674637,172.933594 108.375702,172.953445 122.546616,172.951035 
z"/>
<path fill="#773F8F" opacity="1.000000" stroke="none" 
	d="
M168.988098,173.480072 
	C168.235519,173.878220 167.482300,173.913864 166.215790,173.540939 
	C164.007416,172.752914 162.264771,172.512207 160.631500,171.952393 
	C159.187912,171.457550 156.996765,170.910034 156.632507,169.864349 
	C154.352783,163.320007 148.203598,160.565353 143.733170,156.244217 
	C136.678268,149.424927 129.260513,142.977676 121.921982,136.456635 
	C118.275215,133.216095 114.943298,128.766861 109.012039,131.612991 
	C109.007812,130.483200 109.007156,129.730011 109.006462,128.746918 
	C109.006424,128.517044 109.011093,128.057297 109.011093,128.057297 
	C109.023697,127.882462 109.036301,127.707626 109.075699,127.271088 
	C109.905899,126.469627 110.709290,125.929878 111.798950,125.288376 
	C112.085213,125.186623 112.321671,125.196518 112.321671,125.196518 
	C112.321671,125.196518 112.018005,124.987213 112.018005,124.987213 
	C113.484634,123.098640 114.951271,121.210075 116.968552,119.311516 
	C118.452827,120.844215 119.182129,122.568825 120.361168,123.893005 
	C123.103294,126.972672 126.788765,129.444885 128.769501,132.917572 
	C132.055298,138.678360 134.138000,139.257202 138.004593,134.008240 
	C138.781204,136.271210 139.557831,138.534180 140.675079,140.902847 
	C149.815918,150.567947 158.638718,160.106796 167.378723,169.720932 
	C168.184921,170.607727 168.463745,171.973953 168.988098,173.480072 
z"/>
<path fill="#824899" opacity="1.000000" stroke="none" 
	d="
M151.003052,141.417084 
	C155.379211,140.686111 159.755463,140.347229 164.568649,140.014465 
	C166.243454,146.793335 169.739441,152.518295 175.595459,155.650589 
	C179.461746,157.718582 180.594437,159.456345 179.064606,163.616684 
	C174.836929,165.916321 171.065338,164.681473 168.290115,161.629257 
	C164.528305,157.492004 161.457901,152.733627 157.849014,148.445251 
	C156.773834,147.167633 154.701660,146.774429 153.429520,145.603180 
	C152.361618,144.619965 151.792892,143.094543 151.003052,141.417084 
z"/>
<path fill="#AF74C7" opacity="1.000000" stroke="none" 
	d="
M179.024765,80.021179 
	C177.241653,82.306793 175.458557,84.592407 173.338165,86.688766 
	C173.000900,86.499512 173.001312,86.003601 173.215179,85.808205 
	C173.618561,85.075317 173.808060,84.537834 173.824722,83.712463 
	C165.343979,75.021660 156.904144,66.742912 148.808578,58.140175 
	C146.379227,55.558640 144.909668,52.073895 143.299576,48.833736 
	C145.065826,48.109745 146.532913,47.554947 148.000000,47.000153 
	C148.000000,47.000153 148.000000,47.000000 148.000351,47.399292 
	C149.160477,49.964527 149.915787,52.524719 151.563477,54.215061 
	C155.088318,57.831131 159.083298,60.987629 162.869705,64.350395 
	C166.687088,67.740692 170.384964,71.276566 174.348801,74.484711 
	C175.644547,75.533417 177.797012,77.413017 179.007416,74.024498 
	C179.627731,74.479118 180.248032,74.933731 180.925491,75.706329 
	C180.982635,76.024315 180.959946,76.056488 180.779617,76.178329 
	C180.372574,76.490494 180.192322,76.717690 179.780289,77.111382 
	C178.519394,78.026352 175.894775,78.529846 179.024765,80.021179 
z"/>
<path fill="#B577CC" opacity="1.000000" stroke="none" 
	d="
M178.946487,73.682678 
	C177.797012,77.413017 175.644547,75.533417 174.348801,74.484711 
	C170.384964,71.276566 166.687088,67.740692 162.869705,64.350395 
	C159.083298,60.987629 155.088318,57.831131 151.563477,54.215061 
	C149.915787,52.524719 149.160477,49.964527 148.000351,47.399368 
	C153.623871,46.084019 157.003784,48.269554 160.428986,53.134758 
	C165.085861,59.749477 171.471893,65.145248 177.097275,71.081863 
	C177.755249,71.776237 178.292404,72.585091 178.946487,73.682678 
z"/>
<path fill="#B577CC" opacity="1.000000" stroke="none" 
	d="
M147.951202,46.662537 
	C146.532913,47.554947 145.065826,48.109745 143.054626,48.530342 
	C142.338913,46.269390 142.167297,44.142639 141.995667,42.015888 
	C143.731308,41.690002 145.466934,41.364117 147.603210,41.060921 
	C147.970016,42.830715 147.936203,44.577820 147.951202,46.662537 
z"/>
<path fill="#AF74C7" opacity="1.000000" stroke="none" 
	d="
M183.768158,73.175957 
	C183.370636,75.108086 182.695755,77.176743 182.001526,79.613632 
	C181.542419,79.986877 181.102692,79.991890 180.334747,79.652031 
	C180.016190,78.848068 180.025833,78.388992 180.235031,77.747360 
	C180.609711,77.062035 180.784821,76.559258 180.959930,76.056488 
	C180.959946,76.056488 180.982635,76.024315 180.993866,76.007904 
	C181.833679,75.098488 182.662247,74.205490 183.768158,73.175957 
z"/>
<path fill="#B577CC" opacity="1.000000" stroke="none" 
	d="
M154.226898,41.339134 
	C154.482391,41.155174 154.897797,41.125416 155.623260,41.137856 
	C155.417801,41.284485 154.902298,41.388908 154.226898,41.339134 
z"/>
<path fill="#7E4596" opacity="1.000000" stroke="none" 
	d="
M138.318298,133.962708 
	C134.138000,139.257202 132.055298,138.678360 128.769501,132.917572 
	C126.788765,129.444885 123.103294,126.972672 120.361168,123.893005 
	C119.182129,122.568825 118.452827,120.844215 117.262070,119.150482 
	C118.332382,116.244339 119.659813,113.489227 121.026688,110.378021 
	C121.780495,110.913223 122.577385,112.628426 123.196289,112.566444 
	C128.488785,112.036423 128.756805,116.133301 130.347931,119.456902 
	C132.674759,124.317230 135.448853,129.039551 140.908173,131.679123 
	C140.214951,132.647736 139.423477,133.282455 138.318298,133.962708 
z"/>
<path fill="#9357A9" opacity="1.000000" stroke="none" 
	d="
M156.027496,112.656372 
	C155.121689,114.117737 154.208069,115.250168 153.153625,116.689621 
	C150.002777,114.467422 146.841721,112.094032 144.025391,109.364899 
	C141.237778,106.663612 138.653931,103.716057 136.261383,100.657005 
	C134.894897,98.909859 134.088623,96.724556 133.017181,94.367172 
	C140.251892,91.559868 144.086624,96.438660 148.011475,101.043755 
	C150.626984,104.112587 153.151917,107.258621 155.866974,110.690674 
	C156.017593,111.449959 156.018646,111.888695 156.027496,112.656372 
M135.537186,96.505363 
	C135.537186,96.505363 135.485397,96.527672 135.537186,96.505363 
z"/>
<path fill="#A062B8" opacity="1.000000" stroke="none" 
	d="
M141.238586,83.220810 
	C142.150238,82.422028 143.289673,81.843880 145.068146,81.192619 
	C149.932968,84.024437 154.276810,86.775169 158.343567,89.887901 
	C161.107956,92.003815 163.484055,94.627029 166.033783,97.023392 
	C165.249924,98.628815 164.466064,100.234230 163.358414,101.934357 
	C154.898972,98.692406 147.561539,94.479118 144.139786,85.642784 
	C143.776489,84.704597 142.382294,84.165619 141.238586,83.220810 
z"/>
<path fill="#BE80D5" opacity="1.000000" stroke="none" 
	d="
M175.753265,40.182823 
	C175.985382,40.136093 175.986450,40.573536 175.982330,40.792377 
	C175.804794,41.003414 175.631393,40.995613 175.197876,40.970940 
	C175.036972,40.635845 175.231445,40.394341 175.753265,40.182823 
z"/>
<path fill="#A567BC" opacity="1.000000" stroke="none" 
	d="
M166.370697,96.969391 
	C163.484055,94.627029 161.107956,92.003815 158.343567,89.887901 
	C154.276810,86.775169 149.932968,84.024437 145.357178,81.056335 
	C145.272339,75.732246 144.677567,71.092644 137.381104,70.627777 
	C136.491119,64.713928 131.268784,63.781960 127.962601,60.986721 
	C128.279831,60.201138 128.597061,59.415558 128.949142,58.313068 
	C129.482834,57.418785 129.981674,56.841404 130.891922,56.453201 
	C135.769821,61.407505 141.405838,64.810265 145.383408,70.315178 
	C148.568451,74.723228 153.548157,77.893417 157.932648,81.358292 
	C161.812469,84.424347 165.969940,87.139091 170.004822,90.008942 
	C170.001328,91.722458 169.997818,93.435966 169.990936,95.578133 
	C168.894241,96.309654 167.800919,96.612526 166.370697,96.969391 
z"/>
<path fill="#A062B8" opacity="1.000000" stroke="none" 
	d="
M127.664841,61.134125 
	C131.268784,63.781960 136.491119,64.713928 136.989532,70.623688 
	C136.696518,71.460876 136.388367,71.928574 136.036072,72.679237 
	C134.927505,72.974693 133.863083,72.987175 132.143982,72.761505 
	C128.559326,70.844566 123.842415,71.217438 123.996597,65.997513 
	C125.120087,64.425514 126.243584,62.853519 127.664841,61.134125 
z"/>
<path fill="#9863AE" opacity="1.000000" stroke="none" 
	d="
M123.702599,66.165497 
	C123.842415,71.217438 128.559326,70.844566 131.744690,72.762650 
	C128.367310,73.001945 124.734566,73.001945 119.445152,73.001945 
	C121.282394,69.910797 122.345497,68.122139 123.702599,66.165497 
z"/>
<path fill="#AC6FC4" opacity="1.000000" stroke="none" 
	d="
M141.649780,42.075699 
	C142.167297,44.142639 142.338913,46.269390 142.755463,48.699535 
	C144.909668,52.073895 146.379227,55.558640 148.808578,58.140175 
	C156.904144,66.742912 165.343979,75.021660 173.558075,83.760544 
	C173.309937,84.732208 173.155624,85.367905 173.001312,86.003601 
	C173.001312,86.003601 173.000900,86.499512 173.000610,86.747406 
	C172.855545,87.287384 172.657288,87.536934 171.870636,87.873810 
	C170.890900,88.004906 170.446060,88.006172 170.039536,87.687454 
	C169.631775,85.831650 169.641724,83.813843 168.639618,82.865685 
	C166.846954,81.169510 164.004700,80.519363 162.370560,78.729507 
	C153.838821,69.384872 144.221130,61.335896 133.969254,53.991882 
	C136.414139,50.039757 138.859009,46.087635 141.649780,42.075699 
z"/>
<path fill="#A96BC1" opacity="1.000000" stroke="none" 
	d="
M133.696564,54.123253 
	C144.221130,61.335896 153.838821,69.384872 162.370560,78.729507 
	C164.004700,80.519363 166.846954,81.169510 168.639618,82.865685 
	C169.641724,83.813843 169.631775,85.831650 170.039703,88.020088 
	C170.003952,89.116455 170.006332,89.560196 170.008728,90.003944 
	C170.008728,90.003944 170.000839,90.000679 170.002838,90.004807 
	C165.969940,87.139091 161.812469,84.424347 157.932648,81.358292 
	C153.548157,77.893417 148.568451,74.723228 145.383408,70.315178 
	C141.405838,64.810265 135.769821,61.407505 131.147522,56.315742 
	C131.802444,55.410950 132.613159,54.832787 133.696564,54.123253 
z"/>
<path fill="#6B3280" opacity="1.000000" stroke="none" 
	d="
M109.006500,128.976807 
	C109.007156,129.730011 109.007812,130.483200 108.961746,131.939667 
	C106.898567,137.288025 111.985565,134.195206 112.145462,136.353668 
	C113.666267,139.141571 115.352203,141.837738 117.546654,144.023315 
	C124.763710,151.211197 132.217239,158.161224 139.462433,165.321518 
	C141.508347,167.343445 143.151886,169.772552 144.553925,172.015808 
	C141.741318,172.368546 139.354767,172.720367 136.968216,173.072189 
	C134.611450,173.033417 132.254669,172.994644 129.457367,172.928436 
	C128.675980,167.380295 127.332146,162.840393 120.899849,161.225342 
	C118.896347,160.722275 117.462051,157.939087 115.774773,156.192383 
	C112.065498,152.352493 108.315544,148.550140 104.686478,144.635803 
	C103.772087,143.649536 103.250847,142.298767 102.279541,141.053925 
	C103.985771,137.208710 105.961411,133.425034 108.240021,129.306244 
	C108.542999,128.971115 109.006500,128.976807 109.006500,128.976807 
z"/>
<path fill="#725181" opacity="1.000000" stroke="none" 
	d="
M109.006462,128.746918 
	C109.006500,128.976807 108.542999,128.971115 108.312622,128.956131 
	C108.205864,128.669693 108.387108,128.444672 108.818535,128.161682 
	C109.011093,128.057297 109.006424,128.517044 109.006462,128.746918 
z"/>
<path fill="#B577CC" opacity="1.000000" stroke="none" 
	d="
M180.035461,77.929909 
	C180.025833,78.388992 180.016190,78.848068 180.004791,79.651459 
	C180.003052,79.995766 179.513763,80.013420 179.269257,80.017303 
	C175.894775,78.529846 178.519394,78.026352 179.773758,77.348495 
	C180.045502,77.456009 180.035461,77.929909 180.035461,77.929909 
z"/>
<path fill="#A567BC" opacity="1.000000" stroke="none" 
	d="
M170.311981,89.937073 
	C170.006332,89.560196 170.003952,89.116455 170.001404,88.340073 
	C170.446060,88.006172 170.890900,88.004906 171.669434,88.005402 
	C171.540497,88.628181 171.077866,89.249191 170.311981,89.937073 
z"/>
<path fill="#723988" opacity="1.000000" stroke="none" 
	d="
M144.979965,172.014908 
	C143.151886,169.772552 141.508347,167.343445 139.462433,165.321518 
	C132.217239,158.161224 124.763710,151.211197 117.546654,144.023315 
	C115.352203,141.837738 113.666267,139.141571 112.145462,136.353668 
	C111.985565,134.195206 106.898567,137.288025 108.965324,132.316254 
	C114.943298,128.766861 118.275215,133.216095 121.921982,136.456635 
	C129.260513,142.977676 136.678268,149.424927 143.733170,156.244217 
	C148.203598,160.565353 154.352783,163.320007 156.632507,169.864349 
	C156.996765,170.910034 159.187912,171.457550 160.631500,171.952393 
	C162.264771,172.512207 164.007416,172.752914 165.842865,173.478729 
	C161.957550,173.870026 157.931900,173.914978 153.308960,173.552902 
	C150.136292,172.770416 147.560898,172.394958 144.989822,172.013092 
	C144.994141,172.006699 144.979965,172.014908 144.979965,172.014908 
z"/>
<path fill="#5D2872" opacity="1.000000" stroke="none" 
	d="
M136.956604,173.255600 
	C139.354767,172.720367 141.741318,172.368546 144.553925,172.015808 
	C144.979965,172.014908 144.994141,172.006699 144.989807,172.311035 
	C144.984238,173.013077 144.982986,173.410812 144.981750,173.808533 
	C142.593735,173.848114 140.205734,173.887711 137.373199,173.866745 
	C136.928650,173.806198 136.945007,173.439011 136.956604,173.255600 
z"/>
<path fill="#6B3280" opacity="1.000000" stroke="none" 
	d="
M145.421326,173.882721 
	C144.982986,173.410812 144.984238,173.013077 144.985504,172.317429 
	C147.560898,172.394958 150.136292,172.770416 152.848373,173.493134 
	C150.610352,173.879257 148.235626,173.918091 145.421326,173.882721 
z"/>
<path fill="#725181" opacity="1.000000" stroke="none" 
	d="
M112.009354,124.993607 
	C112.018005,124.987213 112.321671,125.196518 112.321671,125.196518 
	C112.321671,125.196518 112.085213,125.186623 112.036636,125.101868 
	C111.988052,125.017105 112.000710,124.999992 112.009354,124.993607 
z"/>
<path fill="#A96BC1" opacity="1.000000" stroke="none" 
	d="
M173.215179,85.808205 
	C173.155624,85.367905 173.309937,84.732208 173.730896,84.048431 
	C173.808060,84.537834 173.618561,85.075317 173.215179,85.808205 
z"/>
<path fill="#9F79AF" opacity="1.000000" stroke="none" 
	d="
M180.235031,77.747360 
	C180.035461,77.929909 180.045502,77.456009 180.052032,77.218887 
	C180.192322,76.717690 180.372574,76.490494 180.779602,76.178329 
	C180.784821,76.559258 180.609711,77.062035 180.235031,77.747360 
z"/>
<path fill="#985DB0" opacity="1.000000" stroke="none" 
	d="
M135.511292,96.516518 
	C135.485397,96.527672 135.537186,96.505363 135.511292,96.516518 
z"/>
</svg>